# xmcd
#
# Track frame offsets:
#	182
#	27532
#	42962
#	56657
#	67145
#	84445
#	103820
#	119307
#	131232
#	152375
#	167302
#	182770
#
# Disc length: 2554 seconds
#
# Revision: 0
# Processed by: cddbd v1.4PL0 Copyright (c) Steve Scherf et al.
# Submitted via: EasyCDDAExtractor 4.6.0.1
#
DISCID=a009f80c
DTITLE=Dr. John - Crawfish Soiree
DYEAR=1900
DGENRE=
TTITLE0=Crawfish Soiree (Bring Your Own)
TTITLE1=Tipitina
TTITLE2=In the Night
TTITLE3=Woman is the Root of All Evil
TTITLE4=The Time Has Come
TTITLE5=Shoo Raa
TTITLE6=Zu Zu Man
TTITLE7=Baldhead
TTITLE8=Mean Cheatin' Woman
TTITLE9=Make Your Own Bed Well
TTITLE10=A Little Closer To My Home
TTITLE11=Della (Part II)
EXTD=
EXTT0=
EXTT1=
EXTT2=
EXTT3=
EXTT4=
EXTT5=
EXTT6=
EXTT7=
EXTT8=
EXTT9=
EXTT10=
EXTT11=
PLAYORDER=
